HIERARCHY
ROOT Pelvis
{
	OFFSET -0.217368 -24.078917 2.858379
	CHANNELS 6 Xposition Yposition Zposition Zrotation Yrotation Xrotation 
	JOINT Left_hip
	{
		OFFSET 5.858135 -8.228005 -1.766408
		CHANNELS 3 Zrotation Yrotation Xrotation
		JOINT Left_knee
		{
			OFFSET 4.345143 -38.646942 0.803700
			CHANNELS 3 Zrotation Yrotation Xrotation
			JOINT Left_ankle
			{
				OFFSET -1.479033 -42.687447 -3.742800
				CHANNELS 3 Zrotation Yrotation Xrotation
				JOINT Left_foot
				{
					OFFSET 4.105436 -6.028605 12.204244
					CHANNELS 3 Zrotation Yrotation Xrotation
					End Site
					{
						OFFSET 0.000000 0.000000 0.000000
					}
				}
			}
		}
	}
	JOINT Right_hip
	{
		OFFSET -6.030973 -9.051328 -1.354253
		CHANNELS 3 Zrotation Yrotation Xrotation
		JOINT Right_knee
		{
			OFFSET -4.325663 -38.368790 -0.484304
			CHANNELS 3 Zrotation Yrotation Xrotation
			JOINT Right_ankle
			{
				OFFSET 1.905555 -42.004566 -3.456167
				CHANNELS 3 Zrotation Yrotation Xrotation
				JOINT Right_foot
				{
					OFFSET -3.483987 -6.210554 13.032330
					CHANNELS 3 Zrotation Yrotation Xrotation
					End Site
					{
						OFFSET 0.000000 0.000000 0.000000
					}
				}
			}
		}
	}
	JOINT Spine1
	{
		OFFSET 0.443945 12.440353 -3.838522
		CHANNELS 3 Zrotation Yrotation Xrotation
		JOINT Spine2
		{
			OFFSET 0.448844 13.795640 2.682033
			CHANNELS 3 Zrotation Yrotation Xrotation
			JOINT Spine3
			{
				OFFSET -0.226460 5.603239 0.285504
				CHANNELS 3 Zrotation Yrotation Xrotation
				JOINT Neck
				{
					OFFSET -1.339018 21.163553 -3.346758
					CHANNELS 3 Zrotation Yrotation Xrotation
					JOINT Head
					{
						OFFSET 1.011321 8.893734 5.040987
						CHANNELS 3 Zrotation Yrotation Xrotation
						End Site
						{
							OFFSET 0.000000 0.000000 0.000000
						}
					}
				}
				JOINT Left_collar
				{
					OFFSET 7.170247 11.399971 -1.889817
					CHANNELS 3 Zrotation Yrotation Xrotation
					JOINT Left_shoulder
					{
						OFFSET 12.292140 4.520507 -1.904600
						CHANNELS 3 Zrotation Yrotation Xrotation
						JOINT Left_elbow
						{
							OFFSET 25.533188 -1.564902 -2.294648
							CHANNELS 3 Zrotation Yrotation Xrotation
							JOINT Left_wrist
							{
								OFFSET 26.570929 1.269810 -0.737473
								CHANNELS 3 Zrotation Yrotation Xrotation
								JOINT Left_palm
								{
									OFFSET 8.669054 -1.063602 -1.559429
									CHANNELS 3 Zrotation Yrotation Xrotation
									End Site
									{
										OFFSET 0.000000 0.000000 0.000000
									}
								}
							}
						}
					}
				}
				JOINT Right_collar
				{
					OFFSET -8.295364 11.247234 -2.370738
					CHANNELS 3 Zrotation Yrotation Xrotation
					JOINT Right_shoulder
					{
						OFFSET -11.322830 4.685326 -0.847207
						CHANNELS 3 Zrotation Yrotation Xrotation
						JOINT Right_elbow
						{
							OFFSET -26.012751 -1.436928 -3.126872
							CHANNELS 3 Zrotation Yrotation Xrotation
							JOINT Right_wrist
							{
								OFFSET -26.910841 0.679372 -0.602677
								CHANNELS 3 Zrotation Yrotation Xrotation
								JOINT Right_palm
								{
									OFFSET -8.875370 -0.865157 -1.010708
									CHANNELS 3 Zrotation Yrotation Xrotation
									End Site
									{
										OFFSET 0.000000 0.000000 0.000000
									}
								}
							}
						}
					}
				}
			}
		}
	}
}
MOTION
Frames: 12
Frame Time: 0.016667
-0.217368 71.099533 2.858379 -0.456894 -0.788598 -0.220619 2.430645 0.027589 0.809025 -3.657160 0.396197 2.710668 3.419547 8.666777 5.303900 0.000000 0.000000 0.000000 -2.559953 -0.095414 1.994984 2.074011 -0.182935 1.737515 -1.381805 -5.617750 5.417665 0.000000 0.000000 0.000000 1.530075 -0.302201 5.353376 0.184944 0.398971 -17.108369 -1.555448 2.939886 20.103529 2.862522 -1.266190 -8.741962 0.000000 0.000000 0.000000 -31.796820 -8.416791 2.268190 -39.379236 -7.288599 -2.069243 -11.690010 -23.770591 3.298068 0.000000 0.000000 0.000000 0.000000 0.000000 0.000000 33.094106 7.216342 1.537630 42.235620 6.294227 -1.604950 8.207173 23.972213 2.323942 0.000000 0.000000 0.000000 0.000000 0.000000 0.000000 
0.242000 71.200134 2.887082 -0.362064 -0.323407 -0.286203 1.982714 0.047766 0.966321 -3.729757 0.405702 2.873458 3.548208 8.926921 5.400627 0.000000 0.000000 0.000000 -2.817688 -0.131242 2.609160 2.309001 -0.230227 0.766066 -1.422345 -6.079071 6.523066 0.000000 0.000000 0.000000 0.782312 -0.278553 5.720603 0.767867 0.235199 -17.584082 -1.460018 2.569697 20.629817 2.778619 -1.270124 -8.177971 0.000000 0.000000 0.000000 -31.484449 -8.145325 2.086876 -39.712190 -7.412186 -2.046587 -10.883432 -23.251011 3.057554 0.000000 0.000000 0.000000 0.000000 0.000000 0.000000 33.200509 7.192067 1.516665 41.761859 7.408503 -1.228264 7.282121 22.267410 1.976322 0.000000 0.000000 0.000000 0.000000 0.000000 0.000000 
0.798269 71.174706 2.900303 -0.892408 -1.077256 -0.228414 2.263615 -0.019210 0.110345 -3.505977 0.371701 4.042818 3.585934 9.050909 5.626159 0.000000 0.000000 0.000000 -2.461562 -0.088571 1.856841 2.426471 -0.225400 1.755529 -2.089449 -7.722972 7.271751 0.000000 0.000000 0.000000 0.660275 -0.292438 6.170905 1.083701 0.150320 -17.889374 -1.052895 3.030074 21.699124 2.814429 -1.216914 -8.898743 0.000000 0.000000 0.000000 -31.515950 -8.291152 2.187087 -40.322376 -8.562482 -1.712687 -9.502523 -23.214571 2.771059 0.000000 0.000000 0.000000 0.000000 0.000000 0.000000 32.382820 7.336303 1.645980 42.604152 8.358867 -0.929576 6.926132 22.648732 1.949730 0.000000 0.000000 0.000000 0.000000 0.000000 0.000000 
1.451665 71.164398 2.905024 -0.959926 -0.596990 -0.066145 2.253282 -0.058158 -0.435347 -3.634256 0.390254 4.098302 3.751412 9.275737 5.303722 0.000000 0.000000 0.000000 -3.031089 -0.055874 1.717894 2.499311 -0.230289 1.980209 -2.101706 -7.834258 7.572350 0.000000 0.000000 0.000000 0.380149 -0.281250 6.311947 1.713570 0.008716 -19.038843 -1.188091 2.920665 22.717261 2.086247 -0.778022 -8.383594 0.000000 0.000000 0.000000 -32.365139 -8.425918 2.262538 -39.286379 -8.385079 -1.731543 -10.211901 -23.455768 2.947252 0.000000 0.000000 0.000000 0.000000 0.000000 0.000000 32.606559 8.211447 2.261812 41.546391 8.763680 -0.785542 7.641174 21.781025 1.990324 0.000000 0.000000 0.000000 0.000000 0.000000 0.000000 
2.190705 71.176186 2.948559 -1.210809 -0.522916 0.377519 2.688494 -0.107786 -1.115148 -3.836445 0.419697 4.390530 3.997630 9.716517 5.260781 0.000000 0.000000 0.000000 -3.592263 0.026374 0.831127 2.389133 -0.201736 2.781419 -1.773600 -7.171797 7.640554 0.000000 0.000000 0.000000 0.313947 -0.271049 6.174223 1.897637 -0.025174 -19.490579 -1.059904 2.642709 23.065580 1.502507 -0.336135 -8.890535 0.000000 0.000000 0.000000 -32.656986 -8.234202 2.120675 -39.306260 -8.577114 -1.673701 -10.151062 -23.712616 2.968356 0.000000 0.000000 0.000000 0.000000 0.000000 0.000000 32.484972 8.419337 2.412066 41.643052 8.409780 -0.901243 7.567392 21.584188 1.957652 0.000000 0.000000 0.000000 0.000000 0.000000 0.000000 
3.013752 71.112839 2.974196 -1.106366 0.023430 0.556340 2.152217 -0.143623 -1.625546 -3.961844 0.438722 4.851821 3.845810 9.266176 4.536147 0.000000 0.000000 0.000000 -4.238693 0.081048 0.274196 2.144540 -0.153032 3.584246 -1.647631 -6.807171 7.306977 0.000000 0.000000 0.000000 -0.354628 -0.238122 6.403444 2.481557 -0.178138 -19.771177 -1.151290 2.056027 23.208890 1.024982 -0.057432 -8.397452 0.000000 0.000000 0.000000 -32.649985 -7.796793 1.811646 -38.898339 -8.432458 -1.703492 -10.840775 -24.224146 3.182575 0.000000 0.000000 0.000000 0.000000 0.000000 0.000000 31.990857 8.421727 2.422138 41.259607 8.082043 -1.001819 7.746830 21.634001 1.993456 0.000000 0.000000 0.000000 0.000000 0.000000 0.000000 
3.929770 71.011566 2.940673 -1.167831 0.130553 0.465145 2.142955 -0.147021 -1.672079 -4.323030 0.493911 4.856716 4.095760 9.676381 4.300355 0.000000 0.000000 0.000000 -4.970366 0.116278 -0.019236 2.475437 -0.184929 4.347755 -2.020768 -7.495855 6.986432 0.000000 0.000000 0.000000 -0.695740 -0.229095 6.773644 2.859054 -0.284435 -19.778875 -0.970157 1.962485 23.735001 0.298104 0.401552 -7.962822 0.000000 0.000000 0.000000 -32.859871 -7.652400 1.703059 -38.486474 -8.940481 -1.538072 -11.137791 -24.429035 3.274788 0.000000 0.000000 0.000000 0.000000 0.000000 0.000000 31.526744 8.885311 2.754145 40.878478 8.108676 -0.987702 7.442150 21.490384 1.926862 0.000000 0.000000 0.000000 0.000000 0.000000 0.000000 
4.900926 70.815269 2.867045 -1.106627 0.160533 0.264445 1.685175 -0.140263 -1.567636 -4.241763 0.482100 5.037836 3.926933 9.106207 3.254760 0.000000 0.000000 0.000000 -5.964647 0.201856 -1.334972 2.677505 -0.163983 7.438336 -2.492411 -8.224452 6.028817 0.000000 0.000000 0.000000 -1.507330 -0.186622 7.216058 3.743983 -0.560696 -19.346481 -0.647938 1.516799 23.809818 -0.609158 0.909910 -6.272059 0.000000 0.000000 0.000000 -33.754125 -7.568532 1.614288 -37.909492 -8.969238 -1.512324 -11.175475 -25.022274 3.366593 0.000000 0.000000 0.000000 0.000000 0.000000 0.000000 31.186291 9.985663 3.524165 40.191196 8.185250 -0.953913 6.941157 21.177647 1.811881 0.000000 0.000000 0.000000 0.000000 0.000000 0.000000 
5.850310 70.675095 2.800850 -0.917226 0.367056 0.264288 0.550976 -0.162203 -1.797540 -3.925058 0.433518 5.659104 4.056434 9.041378 1.993882 0.000000 0.000000 0.000000 -6.621601 0.367083 -5.093866 2.926484 -0.108344 14.361894 -2.775886 -8.442613 4.602906 0.000000 0.000000 0.000000 -1.953283 -0.162244 7.527848 4.356427 -0.760119 -18.989568 -0.653846 1.291731 23.632626 -1.326030 1.386138 -5.784759 0.000000 0.000000 0.000000 -34.219592 -7.430812 1.498829 -37.726892 -8.906874 -1.524991 -11.386628 -24.937276 3.401112 0.000000 0.000000 0.000000 0.000000 0.000000 0.000000 31.170471 11.063836 4.277271 39.653092 8.280130 -0.917531 6.170051 20.706961 1.641651 0.000000 0.000000 0.000000 0.000000 0.000000 0.000000 
6.707601 70.482697 2.772838 -0.790147 1.135608 -0.271072 -0.150296 -0.109772 -1.203185 -3.814576 0.415835 5.679713 3.931614 8.553834 1.075100 0.000000 0.000000 0.000000 -6.971041 0.529210 -9.446388 3.073323 -0.013205 24.067513 -2.593621 -8.105450 4.834575 0.000000 0.000000 0.000000 -2.292706 -0.160801 8.666900 5.001061 -0.944773 -19.026711 -1.076099 0.523622 23.496638 -1.081953 1.213900 -5.798004 0.000000 0.000000 0.000000 -34.664588 -6.964507 1.141914 -37.409559 -8.944071 -1.504694 -11.435883 -24.562116 3.358132 0.000000 0.000000 0.000000 0.000000 0.000000 0.000000 31.041622 11.648443 4.683434 39.578748 8.032335 -0.991981 5.479806 21.074487 1.559574 0.000000 0.000000 0.000000 0.000000 0.000000 0.000000 
7.385658 70.229240 2.789256 -1.253792 1.496074 -1.201648 -0.071529 0.090983 0.978987 -3.612107 0.388113 3.618034 3.946067 8.414621 0.451944 0.000000 0.000000 0.000000 -6.624890 0.754857 -14.303862 3.386814 0.000383 34.580520 -2.520035 -8.248973 5.904391 0.000000 0.000000 0.000000 -2.735588 -0.147925 10.104020 5.272091 -1.063693 -18.491013 -0.858504 -0.119379 22.860451 -0.275728 0.694942 -6.550852 0.000000 0.000000 0.000000 -34.452157 -6.690776 0.951355 -37.929071 -9.367647 -1.396432 -11.095501 -23.657955 3.157757 0.000000 0.000000 0.000000 0.000000 0.000000 0.000000 30.806799 11.809018 4.789323 40.330266 7.878856 -1.051263 4.417008 22.112511 1.458566 0.000000 0.000000 0.000000 0.000000 0.000000 0.000000 
7.858886 70.021782 2.851483 -2.262206 1.429298 -2.107711 -0.173654 0.271883 2.901253 -3.142085 0.327015 2.761434 4.571312 9.239865 -1.320088 0.000000 0.000000 0.000000 -6.051922 1.147827 -21.300733 5.011893 -0.763603 45.702908 -2.859342 -9.824623 9.340829 0.000000 0.000000 0.000000 -2.923285 -0.161830 12.195969 5.825828 -1.201253 -18.816527 -0.650412 -0.839865 22.945171 -0.552318 1.028545 -8.692468 0.000000 0.000000 0.000000 -35.028867 -5.624382 0.141891 -38.129788 -9.862580 -1.255779 -9.734236 -22.784961 2.763739 0.000000 0.000000 0.000000 0.000000 0.000000 0.000000 29.899886 11.203073 4.350093 41.538397 9.259950 -0.624669 2.811841 22.783869 1.216642 0.000000 0.000000 0.000000 0.000000 0.000000 0.000000 
